{"title":"The.Plague.Dogs.Extended.Version.1982.DVDRip.AC3.x264-wiz","uid":9529934,"size":1468132844,"categoryP":"video","categoryS":"movies","magnet":"?xt=urn:btih:4349d8dcc854130e02ae472594f326317a9fe47f&amp;dn=The.Plague.Dogs.Extended.Version.1982.DVDRip.AC3.x264-wiz&amp;tr=udp%3A%2F%2Ftracker.openbittorrent.com%3A80&amp;tr=udp%3A%2F%2Fopen.demonii.com%3A1337&amp;tr=udp%3A%2F%2Ftracker.coppersurfer.tk%3A6969&amp;tr=udp%3A%2F%2Fexodus.desync.com%3A6969","seeders":22,"leechers":4,"uploader":"rpessoa","files":-1,"time":1390781230,"description":"Two dogs escape from a laboratory and are hunted as possible carriers of the bubonic plague.\n &lt;a href=&quot;\nhttp://www.imdb.com/title/tt0084509/?ref_=fn_al_tt_1&quot; rel=&quot;nofollow&quot; target=&quot;_NEW&quot;&gt;\nhttp://www.imdb.com/title/tt0084509/?ref_=fn_al_tt_1&lt;/a&gt;\n\nGeneral\nUnique ID                        : 36608877529935235679591855865486074837 (0x1B8A9D04473A995765F2E42A22A363D5)\nComplete name                    : The.Plague.Dogs.Extended.Version.1982.DVDRip.AC3.x264-wiz.mkv\nFormat                           : Matroska\nFormat version                   : Version 1\nFile size                        : 1.37 GiB\nDuration                         : 1h 39mn\nOverall bit rate                 : 1 973 Kbps\nEncoded date                     : UTC 2008-10-22 00:12:35\nWriting application              : mkvmerge v2.3.0 ('Freak U') built on Sep  9 2008 17:15:15\nWriting library                  : libebml v0.7.8 + libmatroska v0.8.1\n\nVideo\nID                               : 1\nFormat                           : AVC\nFormat/Info                      : Advanced Video Codec\nFormat profile                   : &lt;a class=&quot;__cf_email__&quot; href=&quot;/cdn-cgi/l/email-protection&quot; data-cfemail=&quot;460e2f212e060a736877&quot;&gt;[email&amp;#160;protected]&lt;/a&gt;&lt;script cf-hash='f9e31' type=&quot;text/javascript&quot;&gt;\n/* &lt;![CDATA[ */!function(){try{var t=&quot;currentScript&quot;in document?document.currentScript:function(){for(var t=document.getElementsByTagName(&quot;script&quot;),e=t.length;e--;)if(t[e].getAttribute(&quot;cf-hash&quot;))return t[e]}();if(t&amp;&amp;t.previousSibling){var e,r,n,i,c=t.previousSibling,a=c.getAttribute(&quot;data-cfemail&quot;);if(a){for(e=&quot;&quot;,r=parseInt(a.substr(0,2),16),n=2;a.length-n;n+=2)i=parseInt(a.substr(n,2),16)^r,e+=String.fromCharCode(i);e=document.createTextNode(e),c.parentNode.replaceChild(e,c)}}}catch(u){}}();/* ]]&gt; */&lt;/script&gt;\nFormat settings, CABAC           : Yes\nFormat settings, ReFrames        : 5 frames\nCodec ID                         : V_MPEG4/ISO/AVC\nDuration                         : 1h 39mn\nBit rate                         : 1 746 Kbps\nWidth                            : 720 pixels\nHeight                           : 576 pixels\nDisplay aspect ratio             : 4:3\nOriginal display aspect ratio    : 5:4\nFrame rate                       : 25.000 fps\nStandard                         : PAL\nColor space                      : YUV\nChroma subsampling               : 4:2:0\nBit depth                        : 8 bits\nScan type                        : Progressive\nBits/(Pixel*Frame)               : 0.168\nStream size                      : 1.18 GiB (87%)\nWriting library                  : x264 core 58 svn-736M\nEncoding settings                : cabac=1 / ref=5 / deblock=1:2:2 / analyse=0x3:0x133 / me=umh / subme=5 / brdo=0 / mixed_ref=1 / me_range=16 / chroma_me=1 / trellis=1 / 8x8dct=1 / cqm=0 / deadzone=21,11 / chroma_qp_offset=0 / threads=3 / nr=150 / decimate=1 / mbaff=0 / bframes=6 / b_pyramid=1 / b_adapt=1 / b_bias=0 / direct=3 / wpredb=1 / bime=1 / keyint=250 / keyint_min=25 / scenecut=40(pre) / rc=2pass / bitrate=1746 / ratetol=1.0 / rceq='blurCplx^(1-qComp)' / qcomp=0.60 / qpmin=10 / qpmax=51 / qpstep=4 / cplxblur=20.0 / qblur=0.5 / ip_ratio=1.40 / pb_ratio=1.30\nLanguage                         : English\n\nAudio\nID                               : 2\nFormat                           : AC-3\nFormat/Info                      : Audio Coding 3\nMode extension                   : CM (complete main)\nCodec ID                         : A_AC3\nDuration                         : 1h 39mn\nBit rate mode                    : Constant\nBit rate                         : 224 Kbps\nChannel(s)                       : 2 channels\nChannel positions                : Front: L R\nSampling rate                    : 48.0 KHz\nBit depth                        : 16 bits\nCompression mode                 : Lossy\nDelay relative to video          : -120ms\nStream size                      : 159 MiB (11%)\nLanguage                         : English\n\nMenu\n00:00:00.000                     : en:Water Experiment\n00:05:36.440                     : en:Plans\n00:15:32.360                     : en:Freedom at Last\n00:21:36.360                     : en:Master of Dogs\n00:25:35.040                     : en:Changed World\n00:32:14.920                     : en:Foxy Proposition\n00:41:35.480                     : en:Guns On The Mountain\n00:46:39.480                     : en:Real Trouble\n00:53:18.840                     : en:Help Us\n00:57:39.560                     : en:Accidental Death\n01:05:08.840                     : en:On The Run\n01:11:12.320                     : en:Snowfall\n01:16:45.640                     : en:Rescued By A Friend\n01:19:33.600                     : en:Military Search\n01:24:13.880                     : en:Separate Ways\n01:29:00.400                     : en:The Sea\n01:33:36.160                     : en:Going Home\n01:34:58.680                     : en:End Credits\n\nNot my rip. Thanks to the original uploader.","torrent":{"xt":"urn:btih:4349d8dcc854130e02ae472594f326317a9fe47f","amp;dn":"The.Plague.Dogs.Extended.Version.1982.DVDRip.AC3.x264-wiz","amp;tr":["udp%3A%2F%2Ftracker.openbittorrent.com%3A80","udp%3A%2F%2Fopen.demonii.com%3A1337","udp%3A%2F%2Ftracker.coppersurfer.tk%3A6969","udp%3A%2F%2Fexodus.desync.com%3A6969"],"infoHash":"4349d8dcc854130e02ae472594f326317a9fe47f","infoHashBuffer":{"type":"Buffer","data":[67,73,216,220,200,84,19,14,2,174,71,37,148,243,38,49,122,159,228,127]},"announce":[],"urlList":[]}}